<mxfile host="app.diagrams.net" agent="Mozilla/5.0 (Windows NT 10.0; Win64; x64) AppleWebKit/537.36 (KHTML, like Gecko) Chrome/127.0.0.0 Safari/537.36" version="24.7.7">
  <diagram name="페이지-1" id="6r4_avM_3K7DLJuaSTiB">
    <mxGraphModel dx="1050" dy="565" grid="1" gridSize="10" guides="1" tooltips="1" connect="1" arrows="1" fold="1" page="1" pageScale="1" pageWidth="827" pageHeight="1169" math="0" shadow="0">
      <root>
        <mxCell id="0" />
        <mxCell id="1" parent="0" />
        <mxCell id="nU5OTVUhE7P2y-YplaJ0-17" style="edgeStyle=orthogonalEdgeStyle;rounded=0;orthogonalLoop=1;jettySize=auto;html=1;" edge="1" parent="1" source="nU5OTVUhE7P2y-YplaJ0-4" target="nU5OTVUhE7P2y-YplaJ0-11">
          <mxGeometry relative="1" as="geometry" />
        </mxCell>
        <mxCell id="nU5OTVUhE7P2y-YplaJ0-20" style="edgeStyle=orthogonalEdgeStyle;rounded=0;orthogonalLoop=1;jettySize=auto;html=1;entryX=0;entryY=0.5;entryDx=0;entryDy=0;" edge="1" parent="1" source="nU5OTVUhE7P2y-YplaJ0-4" target="nU5OTVUhE7P2y-YplaJ0-10">
          <mxGeometry relative="1" as="geometry">
            <Array as="points">
              <mxPoint x="210" y="365" />
              <mxPoint x="210" y="255" />
            </Array>
          </mxGeometry>
        </mxCell>
        <mxCell id="nU5OTVUhE7P2y-YplaJ0-21" style="edgeStyle=orthogonalEdgeStyle;rounded=0;orthogonalLoop=1;jettySize=auto;html=1;entryX=0;entryY=1;entryDx=0;entryDy=0;" edge="1" parent="1" source="nU5OTVUhE7P2y-YplaJ0-4" target="nU5OTVUhE7P2y-YplaJ0-13">
          <mxGeometry relative="1" as="geometry">
            <Array as="points">
              <mxPoint x="300" y="365" />
              <mxPoint x="300" y="470" />
              <mxPoint x="410" y="470" />
              <mxPoint x="410" y="500" />
            </Array>
          </mxGeometry>
        </mxCell>
        <mxCell id="nU5OTVUhE7P2y-YplaJ0-22" style="edgeStyle=orthogonalEdgeStyle;rounded=0;orthogonalLoop=1;jettySize=auto;html=1;entryX=0;entryY=0.5;entryDx=0;entryDy=0;" edge="1" parent="1" source="nU5OTVUhE7P2y-YplaJ0-4" target="nU5OTVUhE7P2y-YplaJ0-12">
          <mxGeometry relative="1" as="geometry">
            <Array as="points">
              <mxPoint x="220" y="365" />
              <mxPoint x="220" y="595" />
            </Array>
          </mxGeometry>
        </mxCell>
        <mxCell id="nU5OTVUhE7P2y-YplaJ0-4" value="사용자" style="shape=umlActor;verticalLabelPosition=bottom;verticalAlign=top;html=1;" vertex="1" parent="1">
          <mxGeometry x="80" y="335" width="30" height="60" as="geometry" />
        </mxCell>
        <mxCell id="nU5OTVUhE7P2y-YplaJ0-15" style="edgeStyle=orthogonalEdgeStyle;rounded=0;orthogonalLoop=1;jettySize=auto;html=1;entryX=0;entryY=0.5;entryDx=0;entryDy=0;" edge="1" parent="1" source="nU5OTVUhE7P2y-YplaJ0-5" target="nU5OTVUhE7P2y-YplaJ0-7">
          <mxGeometry relative="1" as="geometry" />
        </mxCell>
        <mxCell id="nU5OTVUhE7P2y-YplaJ0-5" value="글쓴이&lt;div&gt;&lt;br&gt;&lt;/div&gt;" style="shape=umlActor;verticalLabelPosition=bottom;verticalAlign=top;html=1;" vertex="1" parent="1">
          <mxGeometry x="70" y="150" width="30" height="60" as="geometry" />
        </mxCell>
        <mxCell id="nU5OTVUhE7P2y-YplaJ0-7" value="글을 등록한다." style="ellipse;whiteSpace=wrap;html=1;" vertex="1" parent="1">
          <mxGeometry x="274" y="116" width="126" height="70" as="geometry" />
        </mxCell>
        <mxCell id="nU5OTVUhE7P2y-YplaJ0-8" value="게시판" style="shape=umlFrame;whiteSpace=wrap;html=1;pointerEvents=0;" vertex="1" parent="1">
          <mxGeometry x="200" y="100" width="550" height="590" as="geometry" />
        </mxCell>
        <mxCell id="nU5OTVUhE7P2y-YplaJ0-9" value="파일을 첨부한다." style="ellipse;whiteSpace=wrap;html=1;" vertex="1" parent="1">
          <mxGeometry x="473" y="116" width="140" height="70" as="geometry" />
        </mxCell>
        <mxCell id="nU5OTVUhE7P2y-YplaJ0-10" value="글을 조회한다." style="ellipse;whiteSpace=wrap;html=1;" vertex="1" parent="1">
          <mxGeometry x="274" y="220" width="140" height="70" as="geometry" />
        </mxCell>
        <mxCell id="nU5OTVUhE7P2y-YplaJ0-11" value="&lt;div style=&quot;&quot;&gt;&lt;span style=&quot;background-color: initial;&quot;&gt;검색&lt;/span&gt;&lt;/div&gt;" style="ellipse;whiteSpace=wrap;html=1;align=center;" vertex="1" parent="1">
          <mxGeometry x="330" y="325" width="140" height="70" as="geometry" />
        </mxCell>
        <mxCell id="nU5OTVUhE7P2y-YplaJ0-12" value="로그인 한다." style="ellipse;whiteSpace=wrap;html=1;" vertex="1" parent="1">
          <mxGeometry x="267" y="560" width="140" height="70" as="geometry" />
        </mxCell>
        <mxCell id="nU5OTVUhE7P2y-YplaJ0-13" value="등록된 글을 출력한다." style="ellipse;whiteSpace=wrap;html=1;" vertex="1" parent="1">
          <mxGeometry x="414" y="440" width="140" height="70" as="geometry" />
        </mxCell>
        <mxCell id="nU5OTVUhE7P2y-YplaJ0-14" style="edgeStyle=orthogonalEdgeStyle;rounded=0;orthogonalLoop=1;jettySize=auto;html=1;" edge="1" parent="1" source="nU5OTVUhE7P2y-YplaJ0-7">
          <mxGeometry relative="1" as="geometry">
            <mxPoint x="470" y="150" as="targetPoint" />
          </mxGeometry>
        </mxCell>
        <mxCell id="nU5OTVUhE7P2y-YplaJ0-32" style="edgeStyle=orthogonalEdgeStyle;rounded=0;orthogonalLoop=1;jettySize=auto;html=1;entryX=1;entryY=0.5;entryDx=0;entryDy=0;" edge="1" parent="1" source="nU5OTVUhE7P2y-YplaJ0-23" target="nU5OTVUhE7P2y-YplaJ0-11">
          <mxGeometry relative="1" as="geometry" />
        </mxCell>
        <mxCell id="nU5OTVUhE7P2y-YplaJ0-23" value="글쓴이로 검색" style="ellipse;whiteSpace=wrap;html=1;" vertex="1" parent="1">
          <mxGeometry x="554" y="220" width="140" height="70" as="geometry" />
        </mxCell>
        <mxCell id="nU5OTVUhE7P2y-YplaJ0-27" style="edgeStyle=orthogonalEdgeStyle;rounded=0;orthogonalLoop=1;jettySize=auto;html=1;" edge="1" parent="1" source="nU5OTVUhE7P2y-YplaJ0-24">
          <mxGeometry relative="1" as="geometry">
            <mxPoint x="470" y="360" as="targetPoint" />
          </mxGeometry>
        </mxCell>
        <mxCell id="nU5OTVUhE7P2y-YplaJ0-24" value="날짜 별로&amp;nbsp; 검색" style="ellipse;whiteSpace=wrap;html=1;" vertex="1" parent="1">
          <mxGeometry x="554" y="325" width="140" height="70" as="geometry" />
        </mxCell>
      </root>
    </mxGraphModel>
  </diagram>
</mxfile>
